inDegrees=no
num_controls=7
num_derivatives=13
num_iterations=163
num_multipliers=7
num_parameters=0
num_slacks=7
num_states=26
objective=6.213664
objective_accelerations=0.534169
objective_balance=0.035707
objective_effort=0.487867
objective_height=5.035759
objective_ligament=0.120163
solver_duration=1484.241980
status=Solve_Succeeded
success=true
DataType=double
version=3
OpenSimVersion=4.4-2022-07-23-0e9fedc
endheader
time	/jointset/ground_pelvis/pelvis_tilt/value	/jointset/ground_pelvis/pelvis_tx/value	/jointset/ground_pelvis/pelvis_ty/value	/jointset/hip_r/hip_flexion_r/value	/jointset/hip_r/hip_adduction_r/value	/jointset/hip_r/hip_rotation_r/value	/jointset/back/lumbar_extension/value	/jointset/patellofemoral_r/patellar_flexion_r/value	/jointset/knee_r/knee_flexion_r/value	/jointset/knee_r/knee_adduction_r/value	/jointset/knee_r/knee_rotation_r/value	/jointset/ankle_r/ankle_angle_r/value	/jointset/subtalar_r/subtalar_angle_r/value	/jointset/ground_pelvis/pelvis_tilt/speed	/jointset/ground_pelvis/pelvis_tx/speed	/jointset/ground_pelvis/pelvis_ty/speed	/jointset/hip_r/hip_flexion_r/speed	/jointset/hip_r/hip_adduction_r/speed	/jointset/hip_r/hip_rotation_r/speed	/jointset/back/lumbar_extension/speed	/jointset/patellofemoral_r/patellar_flexion_r/speed	/jointset/knee_r/knee_flexion_r/speed	/jointset/knee_r/knee_adduction_r/speed	/jointset/knee_r/knee_rotation_r/speed	/jointset/ankle_r/ankle_angle_r/speed	/jointset/subtalar_r/subtalar_angle_r/speed	/forceset/tau_hip_flexion_r	/forceset/tau_hip_adduction_r	/forceset/tau_hip_rotation_r	/forceset/tau_knee_flexion_r	/forceset/tau_ankle_angle_r	/forceset/tau_subtalar_angle_r	/forceset/tau_lumbar_extension	lambda_cid13_p0	lambda_cid14_p0	lambda_cid14_p1	lambda_cid14_p2	lambda_cid14_p3	lambda_cid14_p4	lambda_cid14_p5	/jointset/ground_pelvis/pelvis_tilt/accel	/jointset/ground_pelvis/pelvis_tx/accel	/jointset/ground_pelvis/pelvis_ty/accel	/jointset/hip_r/hip_flexion_r/accel	/jointset/hip_r/hip_adduction_r/accel	/jointset/hip_r/hip_rotation_r/accel	/jointset/back/lumbar_extension/accel	/jointset/patellofemoral_r/patellar_flexion_r/accel	/jointset/knee_r/knee_flexion_r/accel	/jointset/knee_r/knee_adduction_r/accel	/jointset/knee_r/knee_rotation_r/accel	/jointset/ankle_r/ankle_angle_r/accel	/jointset/subtalar_r/subtalar_angle_r/accel	gamma_cid13_p0	gamma_cid14_p0	gamma_cid14_p1	gamma_cid14_p2	gamma_cid14_p3	gamma_cid14_p4	gamma_cid14_p5
1	-0.2502936408597256	0.01184453961591016	0.6956969073156066	1.315309779930918	-0.2476170141242027	0.01131712709811908	-0.4363257555640158	1.307846249728979	1.307846249728944	0.02720979221227412	0.1745327037837206	0.4362853631723332	0.0825369717708717	-0.002493816203240921	0.002926772647072454	0.01623982071505185	-0.04067446110310554	0.003106583269911102	-0.03008182790534205	0.001305106477063365	-0.05440319428567263	-0.05440319428567195	-0.01953123889935959	-5.616123178211144e-06	-0.01232025219725271	0.001663444154217866	-0.2477965567204763	0.01274910340329998	0.01914127219496404	-0.4902197095951339	-0.01242364321756767	0.004808837264486478	0.2777165091492321	-0.04671095089395582	-52.58077347491709	-6.868210471015267	1.269589742556018	18.8995078591459	-792.6603223308764	64.07494005555452	1.140060397788829	0.048669869242761	1.602851242948685	-4.896939743537359	0.03446884074546115	-1.229111299469012	0.1459348552602196	-5.053945182283714	-5.053945182283704	0.0942985311938704	0.008122585094882728	-1.519944301644508	-0.449778077767522	7.80688992051519e-10	-3.433920227607814e-09	6.084945630814586e-09	3.718678709120358e-09	8.54872281196686e-09	-4.920965941156069e-09	2.860944220143003e-09
1.01	-0.2502626621844711	0.01187636641988043	0.6959392852206725	1.314659325407987	-0.2475840895643458	0.01095531104047008	-0.4363031716428072	1.307049705253136	1.307049705253005	0.0270193719877556	0.1745326744979494	0.436086352537936	0.0825314043364964	0.008644238330201887	0.003453430776223866	0.03223281116975946	-0.08939202594226957	0.003480372320736731	-0.04227388235077947	0.003362921671886422	-0.1049161693338191	-0.1049161693338211	-0.01854428475392966	-5.246420757644272e-07	-0.02747056410204451	-0.002769025292147239	-0.2486827537561146	0.01289500420470101	0.01911880581614752	-0.4894871153127409	-0.01312463182729791	0.00491335469017449	0.2786064267818308	-0.04748186551612144	-52.81492882612456	-6.853886228550398	1.255962117568012	18.86589900287239	-793.0547983795253	64.03568393664519	1.093881694021723	0.05689153333801904	1.597078945634137	-4.855501797392929	0.03914202880315455	-1.213128572897725	0.2583914375538464	-5.051544128288259	-5.051544128288583	0.1021741114230452	-0.003338386854709198	-1.510879082617095	-0.4387922787928617	9.708360107162887e-10	-3.018060866214644e-09	1.656025512917453e-08	4.470865051900835e-09	6.787824948907762e-09	-8.127048332696017e-09	1.327675308072339e-08
1.02	-0.2501216622212983	0.01191390535485989	0.6963415042300655	1.313522427848015	-0.2475473654956556	0.0104717992271732	-0.4362554722524558	1.305747716934369	1.305747716934141	0.02683907735576265	0.1745326879635099	0.435736177894947	0.08248175002751533	0.01951044137962828	0.004069198848910786	0.04820804158047319	-0.1379630685129148	0.00386648503364588	-0.0544209790288748	0.006328200305113886	-0.1554919628702921	-0.1554919628702967	-0.0175061204002841	2.93418012050653e-06	-0.04255305391565844	-0.007153930767385558	-0.2495689507917429	0.01304090500608207	0.01909633943728128	-0.4887545210303523	-0.01382562043703864	0.005017872115825639	0.2794963444144413	-0.04913733334985209	-53.06029410966985	-6.839841228722188	1.240456200854426	18.86081661967556	-793.6221218630287	64.00338502675697	1.085690100985482	0.06649185794993179	1.599299234149924	-4.867635289833667	0.03693357316220971	-1.220119746000569	0.3274275429410695	-5.066508879949036	-5.066508879949015	0.1045405728369494	0.00779605331353431	-1.506379883408805	-0.4402652835420475	1.125357693125621e-09	-2.92258171844008e-09	2.503670633404998e-08	6.41724736800716e-09	5.984900050395352e-09	-1.037517334564446e-08	2.065635062467829e-08
1.03	-0.2498732766493052	0.01195807525494391	0.6969033180536615	1.311900582374337	-0.2475066989375598	0.009867124068003779	-0.4361736905733891	1.303939792944441	1.303939792944263	0.02666944313794332	0.1745327032954908	0.4352355539051818	0.0823885427374023	0.03012715153052666	0.004782489995657558	0.06414456242752481	-0.1863758428230203	0.004271335187592535	-0.06649958977697408	0.01017209867370914	-0.2060894425965166	-0.2060894425965214	-0.01641199694287199	-3.191020998791071e-06	-0.05755665703975959	-0.01147294516605845	-0.2501076221902117	0.01312021835905181	0.01908389975532777	-0.4877777009429708	-0.01417656162093235	0.005094939232771736	0.2801095564667238	-0.05222776928621758	-53.16374150248907	-6.809716063195507	1.218784949604975	18.73242939510145	-793.7106515437391	63.96293477523874	1.043734024174996	0.07640510088872388	1.589301867083905	-4.823570514832059	0.04293977973684299	-1.199564614458286	0.4344654585629275	-5.055858898068088	-5.055858898068081	0.113161135128897	-0.005311869271068801	-1.495089034673116	-0.4255258021449315	1.279515851695612e-09	-2.830371756518769e-09	3.34927610257266e-08	8.375815357310695e-09	5.191750386215057e-09	-1.261352328330114e-08	2.800496642050435e-08
